<?xml version="1.0" encoding="UTF-8"?>
<!DOCTYPE svg PUBLIC "-//W3C//DTD SVG 1.1//EN" "http://www.w3.org/Graphics/SVG/1.1/DTD/svg11.dtd">
<svg version="1.1" id="Layer_1" xmlns="http://www.w3.org/2000/svg" xmlns:xlink="http://www.w3.org/1999/xlink" x="0px" y="0px" width="32px" height="32px" viewBox="0 0 32 32" enable-background="new 0 0 32 32" xml:space="preserve">
  <g id="main">
    <g id="icon">
      <path d="M15.05,0.516L14.53,0.6L14.03,0.7459L13.57,0.9418L12.75,1.435L12.18,1.983L11.7,2.73L11.22,3.716L10.3,6.018L9.531,8.109L9.226,8.832L8.992,9.211L8.099,9.102L6.296,8.9L5.374,8.859L4.61,8.909L4.327,8.98L4.131,9.088L4.039,9.237L4.067,9.433L4.537,10.41L5.02,11.23L5.529,12.05L6.072,13.05L6.219,13.85L6.212,14.75L6.026,15.74L5.639,16.82L5.024,18.07L4.361,19.22L3.086,21.22L2.572,22.07L2.206,22.81L2.035,23.44L2.038,23.71L2.108,23.95L2.203,24.1L2.331,24.2L2.68,24.32L3.681,24.37L4.294,24.4L4.958,24.51L5.654,24.75L6.361,25.16L6.821,25.56L7.161,25.97L7.659,26.81L7.906,27.24L8.211,27.67L8.617,28.1L9.171,28.53L10.06,29L10.87,29.28L11.54,29.42L11.99,29.48L12.56,29.5L13.09,29.48L14.04,29.32L14.8,29.09L15.38,28.86L16.17,28.46L16.38,28.33L16.14,27.82L15.79,26.76L15.57,25.65L15.5,24.5L15.55,23.58L15.68,22.69L15.91,21.83L16.21,21L16.59,20.21L17.04,19.47L17.56,18.78L18.14,18.14L18.78,17.56L19.47,17.04L20.21,16.59L21,16.21L21.83,15.91L22.69,15.68L23.58,15.55L24.5,15.5L24.84,15.52L24.82,15.37L24.8,14.93L24.83,14.51L24.99,13.72L25.23,13.06L25.53,12.45L25.98,11.29L26.39,10.11L26.55,9.446L26.47,9.221L26.33,9.054L26.12,8.938L25.86,8.866L25.21,8.832L24.46,8.902L22.88,9.148L22.19,9.225L21.67,9.203L21.58,9.124L21.46,8.93L21.17,8.252L20.39,6.124L19.46,3.712L18.97,2.678L18.48,1.908L17.98,1.431L17.28,0.9955L16.45,0.6654L16.01,0.5604L15.57,0.5061zz" id="b" fill="#FFFFFF"/>
      <path d="M17.11,5.477L16.92,5.587L16.75,5.76L16.6,5.99L16.39,6.588L16.31,7.321L16.39,8.054L16.6,8.652L16.75,8.882L16.92,9.055L17.11,9.165L17.31,9.203L17.51,9.165L17.7,9.055L17.87,8.882L18.02,8.652L18.23,8.054L18.31,7.321L18.23,6.588L18.02,5.99L17.87,5.76L17.7,5.587L17.51,5.477L17.31,5.439zz" fill="#404040"/>
      <path d="M15.12,10.3L14.92,10.37L14.59,10.64L14.37,11.04L14.28,11.53L14.37,12.02L14.59,12.42L14.92,12.69L15.12,12.76L15.33,12.79L15.54,12.76L15.73,12.69L16.06,12.42L16.29,12.02L16.37,11.53L16.29,11.04L16.06,10.64L15.73,10.37L15.54,10.3L15.33,10.28zz" fill="#404040"/>
      <path d="M18.31,17.98L18.78,17.56L19.47,17.04L20.21,16.59L21,16.21L21.83,15.91L22.69,15.68L23.58,15.55L24.5,15.5L24.87,15.52L24.74,15.06L24.7,14.37L24.83,13.66L25.33,12.57L25.74,11.54L26.54,9.449L26.57,9.253L26.47,9.104L26.28,8.996L26,8.925L25.23,8.875L24.31,8.916L22.51,9.118L21.61,9.227L21.43,8.916L21.27,8.373L20.94,6.827L20.72,5.945L20.46,5.071L20.12,4.264L19.7,3.585zz" fill="#C8C6C4"/>
      <path d="M13.12,5.477L12.93,5.587L12.76,5.76L12.61,5.99L12.4,6.588L12.32,7.321L12.4,8.054L12.61,8.652L12.76,8.882L12.93,9.055L13.12,9.165L13.32,9.203L13.52,9.165L13.71,9.055L13.88,8.882L14.03,8.652L14.24,8.054L14.32,7.321L14.24,6.588L14.03,5.99L13.88,5.76L13.71,5.587L13.52,5.477L13.32,5.439zz" fill="#404040"/>
      <path d="M17.03,5.133L16.92,5.175L16.73,5.285L16.66,5.342L16.49,5.515L16.44,5.571L16.29,5.8L16.26,5.872L16.04,6.47L16.03,6.551L15.95,7.284L15.95,7.358L16.03,8.091L16.04,8.172L16.26,8.77L16.29,8.842L16.44,9.071L16.49,9.127L16.66,9.3L16.73,9.357L16.92,9.467L17.03,9.509L17.23,9.547L17.36,9.547L17.56,9.509L17.68,9.467L17.86,9.357L17.94,9.3L18.11,9.127L18.15,9.071L18.3,8.842L18.33,8.77L18.55,8.172L18.57,8.091L18.65,7.358L18.65,7.284L18.57,6.551L18.55,6.47L18.33,5.872L18.3,5.8L18.15,5.571L18.11,5.515L17.94,5.342L17.86,5.285L17.68,5.175L17.56,5.133L17.36,5.095L17.23,5.095zM17.37,5.81L17.47,5.865L17.58,5.98L17.69,6.146L17.88,6.667L17.95,7.321L17.88,7.975L17.69,8.496L17.58,8.662L17.47,8.777L17.37,8.832L17.3,8.847L17.22,8.832L17.12,8.777L17.01,8.662L16.9,8.496L16.72,7.975L16.65,7.321L16.72,6.667L16.9,6.146L17.01,5.98L17.12,5.865L17.22,5.81L17.3,5.795zz" fill="#383938"/>
      <path d="M15.02,0.01602L14.95,0.02246L14.44,0.1064L14.38,0.1203L13.88,0.2662L13.83,0.2848L13.36,0.4807L13.29,0.5146L12.48,1.008L12.4,1.072L11.82,1.62L11.75,1.713L11.27,2.46L11.24,2.511L10.76,3.497L10.74,3.532L9.828,5.833L9.824,5.844L9.054,7.926L8.769,8.602L8.724,8.676L8.148,8.605L8.143,8.605L6.34,8.403L6.307,8.401L5.385,8.36L5.33,8.361L4.566,8.41L4.477,8.424L4.194,8.495L4.074,8.542L3.879,8.65L3.695,8.826L3.603,8.975L3.533,9.304L3.533,9.307L3.561,9.503L3.606,9.65L4.075,10.62L4.095,10.66L4.579,11.48L4.584,11.49L5.085,12.3L5.584,13.22L5.708,13.89L5.701,14.7L5.531,15.61L5.167,16.62L4.571,17.83L3.922,18.96L2.654,20.96L2.648,20.97L2.134,21.81L2.114,21.85L1.747,22.59L1.712,22.68L1.541,23.31L1.524,23.44L1.527,23.72L1.546,23.85L1.617,24.09L1.679,24.23L1.773,24.37L1.875,24.48L2.003,24.59L2.159,24.68L2.508,24.79L2.644,24.82L3.642,24.87L3.645,24.87L4.229,24.9L4.826,25L5.434,25.2L6.058,25.57L6.451,25.91L6.739,26.26L7.215,27.06L7.217,27.07L7.462,27.49L7.487,27.53L7.791,27.96L7.836,28.01L8.243,28.44L8.301,28.5L8.854,28.92L8.923,28.97L9.809,29.44L9.883,29.48L10.7,29.76L10.76,29.77L11.43,29.91L11.48,29.92L11.93,29.97L11.96,29.98L12.53,30L12.58,30L13.11,29.97L13.16,29.97L14.11,29.81L14.17,29.8L14.94,29.56L14.98,29.55L15.56,29.32L15.59,29.3L16.38,28.91L16.44,28.88L16.59,28.78L16.16,27.87L15.91,28.03L15.17,28.4L14.63,28.61L13.91,28.83L13.03,28.98L12.55,29L12.02,28.98L11.61,28.93L10.99,28.8L10.25,28.54L9.433,28.11L8.943,27.73L8.587,27.35L8.317,26.97L8.081,26.56L8.078,26.56L7.58,25.71L7.534,25.65L7.195,25.24L7.137,25.18L6.678,24.78L6.602,24.73L5.895,24.32L5.803,24.27L5.108,24.04L5.028,24.02L4.364,23.91L4.311,23.9L3.697,23.87L3.694,23.87L2.762,23.82L2.567,23.76L2.556,23.74L2.526,23.64L2.524,23.5L2.664,22.99L2.999,22.31L3.503,21.48L4.772,19.49L4.783,19.47L5.446,18.32L5.461,18.29L6.077,17.04L6.099,16.99L6.486,15.91L6.507,15.83L6.692,14.84L6.701,14.75L6.708,13.85L6.7,13.75L6.553,12.96L6.5,12.81L5.956,11.81L5.943,11.79L5.44,10.97L5.437,10.97L5.435,10.96L4.967,10.17L4.606,9.423L4.677,9.405L5.368,9.36L6.245,9.399L8.027,9.598L8.029,9.598L8.032,9.599L8.92,9.707L9.249,9.633L9.406,9.474L9.64,9.095L9.676,9.026L9.98,8.303L9.988,8.282L10.76,6.202L10.76,6.2L11.66,3.917L12.12,2.976L12.55,2.304L13.05,1.834L13.78,1.388L14.19,1.218L14.63,1.088L15.08,1.015L15.53,1.006L15.91,1.053L16.29,1.143L17.04,1.444L17.66,1.829L18.08,2.228L18.52,2.919L18.99,3.909L19.91,6.295L19.91,6.296L20.69,8.423L20.7,8.449L20.99,9.127L21.02,9.184L21.13,9.378L21.24,9.503L21.33,9.582L21.64,9.703L22.16,9.725L22.24,9.722L22.92,9.645L22.95,9.642L24.51,9.398L25.21,9.333L25.77,9.362L25.92,9.404L26,9.448L26.02,9.473L25.9,9.967L25.5,11.12L25.06,12.25L24.77,12.84L24.75,12.89L24.51,13.55L24.49,13.62L24.33,14.4L24.32,14.47L24.29,14.9L24.29,14.95L24.31,15.4L24.32,15.46L24.32,15.51L24.5,15.5L25.35,15.55L25.31,15.32L25.29,14.94L25.31,14.58L25.46,13.86L25.68,13.25L25.96,12.67L25.98,12.63L26.43,11.47L26.44,11.45L26.85,10.27L26.86,10.23L27.02,9.563L27.01,9.285L26.94,9.06L26.84,8.892L26.69,8.725L26.56,8.618L26.35,8.501L26.24,8.455L25.98,8.384L25.87,8.367L25.23,8.333L25.16,8.334L24.4,8.404L24.37,8.407L22.8,8.653L22.17,8.724L21.9,8.713L21.9,8.704L21.62,8.068L20.85,5.952L20.85,5.943L19.91,3.53L19.9,3.497L19.41,2.463L19.38,2.411L18.89,1.641L18.81,1.546L18.31,1.069L18.23,1.007L17.53,0.5711L17.45,0.5311L16.63,0.201L16.56,0.1791L16.12,0.07402L16.06,0.06406L15.62,0.009766L15.55,0.006055zz" fill="#383938"/>
      <path d="M15.06,9.954L14.98,9.974L14.79,10.05L14.69,10.1L14.36,10.37L14.27,10.47L14.05,10.87L14.01,10.98L13.93,11.47L13.93,11.59L14.01,12.08L14.05,12.19L14.27,12.59L14.36,12.69L14.69,12.96L14.79,13.02L14.98,13.09L15.06,13.11L15.27,13.13L15.36,13.13L15.57,13.11L15.65,13.09L15.84,13.02L15.94,12.96L16.27,12.69L16.36,12.59L16.58,12.19L16.62,12.08L16.7,11.59L16.7,11.47L16.62,10.98L16.58,10.87L16.36,10.47L16.27,10.37L15.94,10.1L15.84,10.05L15.65,9.974L15.57,9.954L15.36,9.929L15.27,9.929zM15.44,10.64L15.54,10.68L15.78,10.87L15.94,11.16L16,11.53L15.94,11.9L15.78,12.19L15.54,12.38L15.44,12.42L15.31,12.43L15.19,12.42L15.08,12.38L14.85,12.19L14.69,11.9L14.63,11.53L14.69,11.16L14.85,10.87L15.09,10.68L15.19,10.64L15.31,10.63zz" fill="#383938"/>
      <path d="M13.04,5.133L12.93,5.175L12.74,5.285L12.67,5.342L12.5,5.515L12.45,5.571L12.31,5.8L12.27,5.872L12.06,6.47L12.04,6.551L11.96,7.284L11.96,7.358L12.04,8.091L12.06,8.172L12.27,8.77L12.31,8.842L12.45,9.071L12.5,9.127L12.67,9.3L12.74,9.357L12.93,9.467L13.04,9.509L13.24,9.547L13.37,9.547L13.58,9.509L13.69,9.467L13.87,9.357L13.95,9.3L14.12,9.127L14.16,9.071L14.31,8.842L14.35,8.77L14.56,8.172L14.58,8.091L14.66,7.358L14.66,7.284L14.58,6.551L14.56,6.47L14.35,5.872L14.31,5.8L14.16,5.571L14.12,5.515L13.95,5.342L13.87,5.285L13.69,5.175L13.58,5.133L13.37,5.095L13.24,5.095zM13.39,5.81L13.48,5.866L13.59,5.98L13.7,6.146L13.89,6.667L13.96,7.321L13.89,7.975L13.7,8.496L13.59,8.662L13.48,8.776L13.39,8.832L13.31,8.847L13.23,8.832L13.13,8.776L13.02,8.662L12.92,8.496L12.73,7.975L12.66,7.321L12.73,6.667L12.92,6.146L13.02,5.98L13.13,5.866L13.23,5.81L13.31,5.795zz" fill="#383938"/>
    </g>
    <g id="overlay">
      <path d="M31.5,24.5c0,3.866,-3.134,7,-7,7s-7,-3.134,-7,-7s3.134,-7,7,-7S31.5,20.634,31.5,24.5zM29.427,19.573l-9.9,9.9" id="b" fill="#FFFFFF" stroke="#EE3D3B" stroke-width="1" stroke-miterlimit="10"/>
    </g>
  </g>
</svg>
