<?xml version="1.0" encoding="UTF-8"?>
<!DOCTYPE svg PUBLIC "-//W3C//DTD SVG 1.1//EN" "http://www.w3.org/Graphics/SVG/1.1/DTD/svg11.dtd">
<svg version="1.1" id="Layer_1" xmlns="http://www.w3.org/2000/svg" xmlns:xlink="http://www.w3.org/1999/xlink" x="0px" y="0px" width="32px" height="32px" viewBox="0 0 32 32" enable-background="new 0 0 32 32" xml:space="preserve">
  <g id="main">
    <g id="icon">
      <path d="M7.917,2.436L7.201,2.543L6.509,2.716L5.847,2.953L5.216,3.249L4.622,3.601L4.067,4.006L3.554,4.46L3.089,4.959L2.674,5.5L2.312,6.08L2.009,6.695L1.766,7.341L1.588,8.015L1.479,8.713L1.442,9.432L1.47,10.05L1.551,10.66L1.684,11.24L1.867,11.81L2.096,12.36L2.369,12.88L3.04,13.84L3.038,13.84L15,28.3L15.04,28.25L14.94,27.57L14.7,25.9L14.57,24.41L14.6,23.6L14.74,22.63L15.03,21.55L15.48,20.42L15.85,19.72L16.27,19.07L16.75,18.47L17.27,17.92L17.84,17.42L18.45,16.98L19.11,16.59L19.81,16.27L20.9,15.89L22.05,15.62L23.28,15.46L24.58,15.41L25.64,15.44L26.96,13.84L26.96,13.84L27.63,12.88L27.9,12.36L28.13,11.81L28.32,11.24L28.45,10.66L28.53,10.05L28.56,9.432L28.52,8.713L28.41,8.015L28.23,7.341L27.99,6.695L27.69,6.08L27.33,5.5L26.91,4.959L26.45,4.46L25.93,4.006L25.38,3.601L24.78,3.249L24.15,2.953L23.49,2.716L22.8,2.543L22.08,2.436L21.35,2.4L20.34,2.468L19.37,2.668L18.45,2.988L17.6,3.421L16.82,3.957L16.12,4.587L15.51,5.301L15,6.09L14.49,5.301L13.88,4.587L13.18,3.957L12.4,3.421L11.55,2.988L10.63,2.668L9.664,2.468L8.654,2.4zz" fill="#B2DBB4"/>
      <path d="M8.629,1.901L7.892,1.937L7.867,1.938L7.843,1.942L7.127,2.048L7.103,2.052L7.079,2.058L6.388,2.231L6.364,2.237L6.341,2.245L5.679,2.482L5.656,2.49L5.634,2.5L5.004,2.796L4.982,2.806L4.962,2.819L4.367,3.171L4.346,3.183L4.327,3.197L3.772,3.602L3.753,3.616L3.735,3.631L3.223,4.085L3.205,4.101L3.189,4.119L2.723,4.618L2.707,4.636L2.692,4.654L2.277,5.196L2.262,5.215L2.249,5.236L1.888,5.816L1.875,5.837L1.864,5.859L1.561,6.473L1.549,6.496L1.541,6.519L1.298,7.165L1.289,7.189L1.283,7.213L1.105,7.887L1.098,7.912L1.095,7.937L0.9852,8.636L0.9812,8.661L0.9799,8.687L0.9426,9.406L0.9414,9.43L0.9426,9.454L0.9703,10.07L0.9713,10.1L0.9742,10.12L1.056,10.72L1.059,10.75L1.064,10.77L1.197,11.35L1.202,11.38L1.208,11.4L1.391,11.96L1.397,11.98L1.406,12L1.635,12.55L1.643,12.57L1.653,12.59L1.926,13.11L1.941,13.14L1.959,13.16L2.63,14.13L2.642,14.14L2.655,14.16L14.61,28.62L15,29.08L15.09,28.97L15.12,28.85L14.94,27.57L14.92,27.42L3.439,13.54L2.797,12.62L2.549,12.14L2.336,11.64L2.167,11.11L2.044,10.57L1.968,10.01L1.943,9.435L1.977,8.765L2.078,8.119L2.244,7.492L2.468,6.894L2.749,6.324L3.085,5.786L3.47,5.283L3.904,4.818L4.379,4.397L4.897,4.019L5.451,3.691L6.038,3.415L6.655,3.195L7.298,3.034L7.965,2.935L8.65,2.901L9.597,2.965L10.5,3.151L11.35,3.45L12.14,3.852L12.87,4.351L13.52,4.936L14.09,5.6L14.58,6.362L15,7.011L15.42,6.362L15.91,5.6L16.48,4.936L17.13,4.351L17.86,3.852L18.65,3.45L19.5,3.151L20.4,2.965L21.35,2.901L22.03,2.935L22.7,3.034L23.35,3.195L23.96,3.415L24.55,3.691L25.1,4.019L25.62,4.397L26.1,4.818L26.53,5.282L26.92,5.786L27.25,6.324L27.53,6.894L27.76,7.492L27.92,8.119L28.02,8.765L28.06,9.435L28.03,10.01L27.96,10.57L27.83,11.11L27.66,11.64L27.45,12.14L27.2,12.62L26.56,13.54L25.01,15.42L25.85,15.45L26.26,15.48L27.35,14.16L27.36,14.15L27.37,14.13L28.04,13.16L28.06,13.14L28.07,13.11L28.35,12.59L28.36,12.57L28.37,12.55L28.59,12L28.6,11.98L28.61,11.96L28.79,11.4L28.8,11.38L28.8,11.35L28.94,10.77L28.94,10.75L28.94,10.72L29.03,10.12L29.03,10.1L29.03,10.07L29.06,9.454L29.06,9.43L29.06,9.406L29.02,8.687L29.02,8.661L29.01,8.636L28.91,7.937L28.9,7.912L28.89,7.887L28.72,7.213L28.71,7.189L28.7,7.165L28.46,6.519L28.45,6.496L28.44,6.473L28.14,5.859L28.12,5.837L28.11,5.816L27.75,5.236L27.74,5.215L27.72,5.196L27.31,4.654L27.29,4.636L27.28,4.618L26.81,4.119L26.8,4.101L26.78,4.085L26.27,3.631L26.25,3.616L26.23,3.602L25.67,3.197L25.65,3.183L25.63,3.171L25.04,2.819L25.02,2.806L25,2.796L24.37,2.5L24.34,2.49L24.32,2.482L23.66,2.245L23.64,2.237L23.61,2.231L22.92,2.058L22.9,2.052L22.87,2.048L22.16,1.942L22.13,1.938L22.11,1.937L21.37,1.901L21.34,1.899L21.31,1.901L20.3,1.97L20.27,1.972L20.24,1.979L19.27,2.178L19.24,2.185L19.2,2.196L18.29,2.516L18.26,2.527L18.23,2.542L17.38,2.975L17.35,2.99L17.32,3.009L16.54,3.545L16.51,3.563L16.49,3.585L15.79,4.215L15.76,4.237L15.74,4.262L15.13,4.976L15.11,5.001L15.09,5.029L15,5.169L14.91,5.029L14.89,5.001L14.87,4.976L14.26,4.262L14.24,4.237L14.21,4.215L13.51,3.585L13.49,3.563L13.46,3.545L12.68,3.009L12.65,2.99L12.62,2.975L11.77,2.542L11.74,2.527L11.71,2.516L10.8,2.196L10.76,2.185L10.73,2.178L9.765,1.979L9.732,1.972L9.698,1.97L8.688,1.901L8.659,1.899zz" fill="#009949"/>
    </g>
    <g id="overlay">
      <path d="M28.97,17.629c-1.716,0.254,-5.016,-0.836,-8.387,0.541c-3.37,1.376,-4.005,4.948,-3.968,6.183c0.038,1.291,0.587,4.096,0.566,4.617c0.331,-0.554,1.56,-0.455,1.977,-0.415c7.664,0.679,11.395,-9.291,12.227,-11.814c0.044,-0.133,-0.012,-0.187,-0.116,-0.094C30.855,17.018,30.016,17.474,28.97,17.629z" id="b" fill="#FFFFFF" stroke="#17AB4F" stroke-width="1.1" stroke-miterlimit="10"/>
      <path d="M16.633,31.349c1.853,-9.564,7.413,-9.67,8.859,-10.084" fill="none" stroke="#17AB4F" stroke-width="1.1" stroke-linecap="round" stroke-miterlimit="10"/>
    </g>
  </g>
</svg>
